<svg width="360" height="428" viewBox="0 0 360 428" fill="none" xmlns="http://www.w3.org/2000/svg">
<path d="M311.004 359.613C311.004 359.185 309.587 314.673 302.742 307.653C296.06 300.805 288.446 307.397 288.122 307.696L287.433 306.797C287.514 306.755 296.141 299.307 303.471 306.84C310.64 314.202 312.017 357.729 312.098 359.57L311.004 359.613Z" fill="#E0E0E0"/>
<path d="M311.612 368.344C311.531 367.83 306.914 314.972 325.179 292.802L325.989 293.529C308.048 315.357 312.624 367.702 312.665 368.258L311.612 368.344Z" fill="#E0E0E0"/>
<path d="M310.923 362.78L309.87 362.694C309.911 362.095 313.434 302.603 300.029 289.549L300.758 288.736C314.528 302.132 311.085 360.297 310.923 362.78Z" fill="#E0E0E0"/>
<path d="M312.665 362.737H311.612C311.612 361.068 312.057 322.548 322.385 316.256C324.693 314.844 326.961 314.63 329.108 315.571C335.385 318.311 338.463 330.081 338.585 330.594L337.572 330.894C337.532 330.765 334.454 319.124 328.703 316.599C326.88 315.828 324.936 316.042 322.952 317.241C313.11 323.19 312.665 362.352 312.665 362.737Z" fill="#E0E0E0"/>
<path d="M308.615 362.737L307.562 362.694C307.562 362.395 309.141 332.221 301.406 321.606C299.543 319.038 297.518 317.797 295.412 317.968C290.349 318.353 286.097 326.143 286.056 326.229L285.125 325.672C285.327 325.33 289.701 317.241 295.331 316.813C297.842 316.641 300.191 318.011 302.256 320.921C310.235 331.878 308.696 361.496 308.615 362.737Z" fill="#E0E0E0"/>
<path d="M310.316 366.846C310.113 363.935 305.294 295.07 313.758 282.958L314.649 283.6C306.387 295.413 311.328 366.075 311.409 366.76L310.316 366.846Z" fill="#E0E0E0"/>
<path d="M331.416 322.548C331.416 322.548 326.313 324.517 327.852 329.225C329.351 333.89 345.47 341.594 345.47 341.594C345.47 341.594 352.193 335.088 345.996 324.431C339.8 313.817 331.538 319.209 331.416 322.548Z" fill="#EBEBEB"/>
<path d="M309.263 313.645C309.263 313.645 314.69 313.389 315.014 318.311C315.297 323.275 303.269 336.929 303.269 336.929C303.269 336.929 294.642 333.633 296.505 321.307C298.328 308.98 307.926 310.607 309.263 313.645Z" fill="#EBEBEB"/>
<path d="M304.686 289.977C304.686 289.977 308.291 289.592 308.007 287.238C307.724 284.927 293.954 278.935 285.813 288.607C285.813 288.607 291.038 298.066 298.53 298.195C306.063 298.323 304.686 289.977 304.686 289.977Z" fill="#EBEBEB"/>
<path d="M311.409 284.327C311.409 284.327 308.129 285.997 307.238 283.857C306.306 281.717 314.973 268.962 326.718 272.643C326.718 272.643 327.042 283.557 320.724 287.88C314.406 292.16 311.409 284.327 311.409 284.327Z" fill="#EBEBEB"/>
<path d="M294.318 320.665C294.318 320.665 296.789 318.525 294.116 317.497C291.402 316.47 278.199 316.77 278.078 330.594C278.078 330.594 293.427 333.291 295.371 328.026C297.275 322.762 294.318 320.665 294.318 320.665Z" fill="#EBEBEB"/>
<path d="M325.665 289.635C325.665 289.635 323.195 287.495 325.868 286.467C328.581 285.44 341.784 285.74 341.906 299.564C341.906 299.564 326.516 302.261 324.612 296.996C322.709 291.732 325.665 289.635 325.665 289.635Z" fill="#EBEBEB"/>
<path d="M317.565 300.763C317.565 300.763 317.322 298.195 319.307 299.222C321.291 300.206 328.176 308.081 321.048 315.529C321.048 315.529 311.409 307.996 313.151 304.101C314.892 300.163 317.565 300.763 317.565 300.763Z" fill="#EBEBEB"/>
<path d="M292.05 304.486C292.05 304.486 293.549 302.389 291.362 302.132C289.175 301.875 279.414 304.657 281.682 314.972C281.682 314.972 293.589 314.031 294.116 309.751C294.642 305.471 292.05 304.486 292.05 304.486Z" fill="#EBEBEB"/>
<path d="M322.709 382.682H298.652L292.253 351.481H328.5L322.709 382.682Z" fill="#F0F0F0"/>
<path d="M330.566 359.998H290.066V351.053H330.566V359.998Z" fill="#E6E6E6"/>
<path d="M45.5914 359.613C45.5914 359.185 44.1739 314.673 37.3294 307.653C30.6469 300.805 23.0329 307.397 22.7089 307.696L22.0204 306.797C22.1014 306.755 30.7279 299.307 38.0584 306.84C45.2269 314.202 46.6039 357.729 46.6849 359.57L45.5914 359.613Z" fill="#E0E0E0"/>
<path d="M46.1988 368.344C46.1178 367.83 41.5008 314.972 59.7663 292.802L60.5763 293.529C42.6348 315.357 47.2113 367.702 47.2518 368.258L46.1988 368.344Z" fill="#E0E0E0"/>
<path d="M45.5103 362.78L44.4573 362.694C44.4573 362.095 48.0213 302.603 34.6158 289.549L35.3448 288.736C49.1148 302.132 45.6723 360.297 45.5103 362.78Z" fill="#E0E0E0"/>
<path d="M47.2519 362.737H46.1989C46.1989 361.068 46.6039 322.548 56.9719 316.256C59.2804 314.844 61.5484 314.63 63.6949 315.571C69.9724 318.311 73.0504 330.081 73.1719 330.594L72.1594 330.894C72.1189 330.765 69.0409 319.124 63.2899 316.599C61.4674 315.828 59.5234 316.042 57.4984 317.241C47.6974 323.19 47.2519 362.352 47.2519 362.737Z" fill="#E0E0E0"/>
<path d="M43.2019 362.737L42.1489 362.694C42.1489 362.395 43.7284 332.221 35.9929 321.606C34.1299 319.038 32.1049 317.797 29.9989 317.968C24.9364 318.353 20.6839 326.143 20.6434 326.229L19.7119 325.672C19.9144 325.33 24.2884 317.241 29.9179 316.813C32.4289 316.641 34.7779 318.011 36.8434 320.921C44.8219 331.878 43.2829 361.496 43.2019 362.737Z" fill="#E0E0E0"/>
<path d="M44.9028 366.846C44.7003 363.935 39.8808 295.07 48.3453 282.958L49.2363 283.6C40.9743 295.413 45.9153 366.075 45.9558 366.76L44.9028 366.846Z" fill="#E0E0E0"/>
<path d="M66.0033 322.548C66.0033 322.548 60.9003 324.517 62.3988 329.225C63.9378 333.89 80.0568 341.594 80.0568 341.594C80.0568 341.594 86.7798 335.088 80.5833 324.431C74.3868 313.817 66.1248 319.209 66.0033 322.548Z" fill="#EBEBEB"/>
<path d="M43.8499 313.645C43.8499 313.645 49.2769 313.389 49.6009 318.311C49.8844 323.275 37.8559 336.929 37.8559 336.929C37.8559 336.929 29.2294 333.633 31.0924 321.307C32.9149 308.98 42.5134 310.607 43.8499 313.645Z" fill="#EBEBEB"/>
<path d="M39.2734 289.977C39.2734 289.977 42.8779 289.592 42.5944 287.238C42.3109 284.927 28.5409 278.935 20.4004 288.607C20.4004 288.607 25.6249 298.066 33.1174 298.195C40.6504 298.323 39.2734 289.977 39.2734 289.977Z" fill="#EBEBEB"/>
<path d="M45.9964 284.327C45.9964 284.327 42.7158 285.997 41.8248 283.857C40.8933 281.717 49.5604 268.962 61.3054 272.643C61.3054 272.643 61.6294 283.557 55.3114 287.88C48.9934 292.16 45.9964 284.327 45.9964 284.327Z" fill="#EBEBEB"/>
<path d="M28.9054 320.665C28.9054 320.665 31.3759 318.525 28.7029 317.497C25.9894 316.47 12.7864 316.77 12.6244 330.594C12.6244 330.594 28.0144 333.291 29.9179 328.026C31.8619 322.762 28.9054 320.665 28.9054 320.665Z" fill="#EBEBEB"/>
<path d="M60.2524 289.635C60.2524 289.635 57.7819 287.495 60.4549 286.467C63.1684 285.44 76.3714 285.74 76.4929 299.564C76.4929 299.564 61.1029 302.261 59.1994 296.996C57.2959 291.732 60.2524 289.635 60.2524 289.635Z" fill="#EBEBEB"/>
<path d="M52.1119 300.763C52.1119 300.763 51.9094 298.195 53.8939 299.222C55.8784 300.206 62.7634 308.081 55.5949 315.529C55.5949 315.529 45.9964 307.996 47.7379 304.101C49.4794 300.163 52.1119 300.763 52.1119 300.763Z" fill="#EBEBEB"/>
<path d="M26.6374 304.486C26.6374 304.486 28.1359 302.389 25.9489 302.132C23.7619 301.875 14.0014 304.657 16.2694 314.972C16.2694 314.972 28.1764 314.031 28.7029 309.751C29.2294 305.471 26.6374 304.486 26.6374 304.486Z" fill="#EBEBEB"/>
<path d="M57.2959 382.682H33.2389L26.8399 351.481H63.0874L57.2959 382.682Z" fill="#F0F0F0"/>
<path d="M65.1529 359.998H24.6529V351.053H65.1529V359.998Z" fill="#E6E6E6"/>
<path d="M349.709 383.83C349.709 386.741 273.934 389.095 180.5 389.095C87.0665 389.095 11.3315 386.741 11.3315 383.83C11.3315 380.92 87.0665 378.566 180.5 378.566C273.934 378.566 349.709 380.92 349.709 383.83Z" fill="#F5F5F5"/>
<path d="M273.407 301.783C277.052 291.168 281.507 280.682 286.894 272.208C264.943 205.654 265.631 175.865 265.631 175.865L292.078 175.822L294.872 186.993C294.872 186.993 301.474 214.685 303.418 230.606L308.926 265.959V266.088C309.331 273.406 307.792 280.725 304.471 287.188C300.907 294.25 294.548 302.596 291.065 310.214C286.448 320.272 282.115 330.33 278.429 339.318C274.541 348.82 273.529 347.236 271.544 353.014C269.681 353.228 261.865 359.52 260.245 356.267C260.245 356.267 264.254 328.49 273.407 301.783Z" fill="#263238"/>
<path d="M276.971 378.652C271.463 374.414 267.899 370.562 266.805 367.823C266.562 367.352 275.635 349.762 275.675 348.563L260.974 343.17C259.961 342.571 256.843 362.901 256.6 363.201L251.578 369.835C251.173 370.348 251.213 371.162 251.74 371.632C251.848 371.718 251.956 371.789 252.064 371.846C255.223 373.259 256.762 373.944 260.69 375.784L272.8 381.305C276.08 382.803 278.227 379.593 276.971 378.652Z" fill="#263238"/>
<path opacity="0.4" d="M276.971 378.652C271.463 374.414 267.899 370.562 266.805 367.823C266.562 367.352 275.635 349.762 275.675 348.563L260.974 343.17C259.961 342.571 256.843 362.901 256.6 363.201L251.578 369.835C251.173 370.348 251.213 371.162 251.74 371.632C251.848 371.718 251.956 371.789 252.064 371.846C255.223 373.259 256.762 373.944 260.69 375.784L272.8 381.305C276.08 382.803 278.227 379.593 276.971 378.652Z" fill="black"/>
<path opacity="0.2" d="M280.778 252.434C277.578 241.092 275.189 233.431 273.569 225C273.569 223.031 278.024 208.222 281.183 204.841C281.183 204.841 285.395 228.552 280.778 252.434Z" fill="black"/>
<path opacity="0.2" d="M270.491 313.039C270.451 313.467 272.921 337.435 271.909 343.17C270.896 348.906 268.709 355.625 268.709 355.625C268.709 355.625 266.441 350.19 266.279 349.89C266.077 349.59 270.491 313.039 270.491 313.039Z" fill="black"/>
<path d="M285.395 176.464C285.395 176.464 275.311 249.995 274.136 266.558C274.136 266.558 266.563 338.505 267.697 358.664L255.182 367.78C255.182 367.78 245.867 306.962 250.565 267.928C250.97 262.835 246.677 229.622 245.989 216.397C244.369 184.596 256.6 175.865 256.6 175.865L285.395 176.464Z" fill="#263238"/>
<path d="M255.992 176.208L292.483 176.165L291.956 171.671H256.519L255.992 176.208Z" fill="black"/>
<path d="M275.027 176.422H283.127V171.157H275.027V176.422Z" fill="#407BFF"/>
<path d="M266.644 171.671V176.892H263.728V171.671H266.644Z" fill="#263238"/>
<path d="M280.616 378.138C273.974 376.597 269.276 374.543 267.21 372.488C266.805 372.103 268.547 352.201 268.142 351.088L252.63 352.287C251.496 352.158 256.235 372.103 256.114 372.488L254.008 380.663C253.805 381.348 254.17 382.076 254.818 382.29C254.953 382.318 255.074 382.332 255.182 382.332C258.665 382.332 260.285 382.332 264.578 382.332H277.781C281.345 382.332 282.115 378.48 280.616 378.138Z" fill="#263238"/>
<path opacity="0.2" d="M280.616 378.138C273.974 376.597 269.276 374.543 267.21 372.488C266.805 372.103 268.547 352.201 268.142 351.088L252.63 352.287C251.496 352.158 256.235 372.103 256.114 372.488L254.008 380.663C253.805 381.348 254.17 382.076 254.818 382.29C254.953 382.318 255.074 382.332 255.182 382.332C258.665 382.332 260.285 382.332 264.578 382.332H277.781C281.345 382.332 282.115 378.48 280.616 378.138Z" fill="black"/>
<path d="M267.98 372.745C267.089 372.874 266.279 373.387 265.793 374.115" stroke="#407BFF" stroke-linecap="round" stroke-linejoin="round"/>
<path d="M267.332 370.648C266.563 370.391 265.672 370.477 264.943 370.905" stroke="#407BFF" stroke-linecap="round" stroke-linejoin="round"/>
<path d="M267.494 367.481C266.603 367.138 265.59 367.267 264.78 367.738" stroke="#407BFF" stroke-linecap="round" stroke-linejoin="round"/>
<path d="M270.41 374.457C269.438 374.628 268.506 375.228 267.98 376.126" stroke="#407BFF" stroke-linecap="round" stroke-linejoin="round"/>
<path d="M272.759 375.912C271.787 376.041 270.855 376.64 270.329 377.539" stroke="#407BFF" stroke-linecap="round" stroke-linejoin="round"/>
<path d="M266.279 364.314C266.117 363.5 265.752 362.773 265.307 362.131C265.037 361.788 264.753 361.475 264.456 361.189C264.173 360.932 263.889 360.633 263.565 360.376C263.241 360.162 262.836 360.162 262.553 360.462C262.31 360.761 262.31 361.232 262.431 361.574C262.674 362.302 263.282 362.858 263.849 363.286C264.456 363.757 265.185 364.142 265.752 364.613C265.914 364.742 266.076 364.742 266.198 364.613C266.319 364.528 266.319 364.271 266.198 364.185C265.266 363.415 264.132 362.944 263.363 361.96C263.201 361.746 262.998 361.489 262.958 361.189C262.958 361.104 262.958 360.932 263.039 360.89C263.079 360.804 263.201 360.932 263.282 360.975C263.565 361.146 263.808 361.403 264.051 361.66C264.294 361.917 264.524 362.188 264.74 362.473C265.185 363.03 265.55 363.757 265.712 364.485C265.793 364.87 266.36 364.699 266.279 364.314Z" fill="#407BFF"/>
<path d="M266.238 364.613C266.967 364.356 267.615 363.928 268.182 363.415C268.479 363.129 268.763 362.816 269.033 362.473C269.276 362.174 269.519 361.831 269.721 361.489C269.924 361.104 269.924 360.633 269.559 360.376C269.235 360.162 268.83 360.205 268.466 360.376C267.858 360.676 267.372 361.36 267.008 362.002C266.603 362.687 266.319 363.458 265.874 364.142C265.671 364.485 266.198 364.827 266.4 364.442C267.048 363.415 267.413 362.174 268.263 361.318C268.466 361.146 268.668 360.89 268.952 360.89C269.033 360.847 269.195 360.847 269.235 360.932C269.276 361.018 269.195 361.146 269.154 361.232C268.79 361.831 268.344 362.388 267.858 362.858C267.332 363.372 266.724 363.757 266.076 363.971C265.671 364.1 265.833 364.742 266.238 364.613Z" fill="#407BFF"/>
<path d="M259.435 176.422C259.435 176.422 249.674 196.11 251.577 221.019C253.481 245.929 255.142 258.384 255.385 269.34C255.668 280.34 253.683 318.732 256.964 351.944" stroke="#407BFF" stroke-linecap="round" stroke-linejoin="round"/>
<path d="M262.796 107.942C260.812 103.02 260.366 97.156 262.836 92.5336L259.272 88.5532C257.004 88.4248 254.656 89.238 252.874 90.8216C251.132 92.3624 249.917 94.6308 249.593 97.0276C249.147 100.537 250.524 104.047 251.618 107.385C253.076 111.794 254.21 116.373 254.899 120.996C255.02 121.766 255.141 122.536 255.627 123.093C256.235 123.778 257.207 123.863 258.139 123.863C262.634 123.863 267.17 122.879 271.301 120.996C268.061 116.93 264.74 112.821 262.796 107.942Z" fill="#263238"/>
<path d="M283.37 77.896C288.149 81.32 289.486 86.242 289.405 89.7516C288.757 94.5024 287.177 97.8836 285.921 102.463L274.217 74.472C276.971 75.114 278.227 74.5148 283.37 77.896Z" fill="#263238"/>
<path d="M277.254 75.4138C272.597 73.1026 267.98 75.7562 265.266 77.5966C262.31 80.2074 260.568 84.0166 260.447 88.0826C260.406 91.8918 260.366 96.4714 262.512 98.483C263.727 99.6386 265.347 100.195 266.967 100.024L284.909 82.9038C283.005 79.7366 280.373 77.1686 277.254 75.4138Z" fill="#263238"/>
<path d="M277.498 126.774C276.121 128.229 274.865 127.715 273.043 126.902C262.229 122.708 265.51 117.186 265.51 117.186C267.575 114.661 267.697 111.58 266.968 106.957C266.968 106.815 266.968 106.672 266.968 106.529C266.968 105.93 267.17 105.288 267.535 104.817C268.466 103.405 270.248 103.062 271.585 104.047L276.445 105.545C276.445 105.63 276.458 105.716 276.485 105.802C276.445 108.327 276.364 110.296 276.364 111.879C276.404 112.05 276.364 112.222 276.364 112.436C276.404 112.607 276.404 112.821 276.404 112.992C276.485 115.132 279.887 118.299 281.264 119.027C282.115 119.54 282.155 121.766 277.498 126.774Z" fill="#FDBBB5"/>
<path opacity="0.2" d="M276.364 110.938C276.364 109.397 276.242 108.284 276.242 105.716C276.215 105.659 276.201 105.588 276.201 105.502L271.382 103.961C270.046 102.977 268.264 103.362 267.332 104.774C267.008 105.245 266.846 105.844 266.846 106.486C269.276 109.611 272.759 112.264 276.445 113.334L276.364 110.938Z" fill="black"/>
<path d="M263.444 89.1524C263.565 97.9692 263.444 101.65 267.332 106.444C273.205 113.677 283.168 111.879 285.557 103.276C287.623 95.5296 287.136 82.5184 279.32 78.4096C271.544 74.3008 263.363 80.3784 263.444 89.1524Z" fill="#FDBBB5"/>
<path d="M259.515 96.6424C260.325 98.5684 261.824 99.8524 263.241 100.366C265.428 101.179 266.887 97.5412 266.32 95.1444C265.834 92.9616 263.808 91.378 261.621 91.592C259.475 91.8488 258.584 94.4596 259.515 96.6424Z" fill="#FDBBB5"/>
<path opacity="0.2" d="M264.213 96.6424C264.213 95.7864 263.93 94.9732 263.363 94.374C262.836 93.732 262.067 93.3896 261.257 93.3468" stroke="black" stroke-linecap="round" stroke-linejoin="round"/>
<path d="M274.055 93.0472C273.974 93.9888 274.42 94.802 274.946 94.8876C275.513 94.9304 275.958 94.2456 275.999 93.304C276.039 92.3624 275.634 91.5492 275.108 91.4636C274.541 91.4208 274.096 92.1056 274.055 93.0472Z" fill="#263238"/>
<path d="M282.236 93.8604C282.195 94.7592 282.641 95.5296 283.167 95.6152C283.694 95.658 284.18 94.9732 284.22 94.0744C284.261 93.1756 283.856 92.4052 283.289 92.3196C282.762 92.2768 282.276 92.9188 282.236 93.8604Z" fill="#263238"/>
<path d="M272.597 89.6232C272.678 89.666 272.799 89.6232 272.88 89.5804C274.298 88.4248 275.675 89.024 275.715 89.024C275.918 89.1096 276.161 89.024 276.201 88.7672C276.282 88.5532 276.161 88.2964 275.959 88.2108C275.878 88.168 274.136 87.4404 272.395 88.8528C272.233 88.9812 272.192 89.2808 272.314 89.452C272.395 89.5661 272.489 89.6232 272.597 89.6232Z" fill="#263238"/>
<path d="M285.395 89.7088C285.503 89.6803 285.571 89.6232 285.598 89.5376C285.719 89.3236 285.638 89.0668 285.476 88.9384C283.654 87.6116 282.155 88.3392 282.115 88.382C281.912 88.4676 281.872 88.7244 281.953 88.9384C282.074 89.1524 282.276 89.238 282.479 89.1524C282.519 89.1096 283.694 88.596 285.111 89.6232C285.219 89.7088 285.314 89.7373 285.395 89.7088Z" fill="#263238"/>
<path d="M280.049 93.1756C280.049 93.1756 281.062 96.5996 282.358 98.8252C282.56 99.2104 282.358 99.724 281.953 99.8096C280.9 100.109 279.725 99.6384 279.725 99.6384L280.049 93.1756Z" fill="#DE7E73"/>
<path d="M274.784 91.5064L276.728 91.2068C276.728 91.2068 275.553 92.6192 274.784 91.5064Z" fill="#263238"/>
<path d="M283.127 92.3196L285.071 92.02C285.071 92.02 283.897 93.4324 283.127 92.3196Z" fill="#263238"/>
<path d="M279.158 102.035C278.469 102.848 277.538 104.475 277.538 104.475C277.376 104.418 277.214 104.361 277.052 104.304C274.987 103.405 274.298 102.249 274.136 101.222C274.096 100.666 274.217 100.152 274.339 99.7668C274.501 99.3388 274.703 99.0392 274.703 99.0392C275.513 100.238 277.417 101.222 278.47 101.736C278.875 101.95 279.158 102.035 279.158 102.035Z" fill="#263238"/>
<path d="M278.47 101.736L277.943 102.42C275.999 101.564 274.703 100.666 274.339 99.7668C274.501 99.3388 274.703 99.0392 274.703 99.0392C275.513 100.238 277.417 101.222 278.47 101.736Z" fill="white"/>
<path d="M277.052 104.304C274.987 103.405 274.298 102.249 274.136 101.222C274.865 101.564 275.675 102.078 276.282 102.72C276.768 103.234 276.971 103.79 277.052 104.304Z" fill="#FD504E"/>
<path d="M266.117 91.3352C266.117 91.3352 270.896 85.6428 271.098 80.7636C271.098 80.7636 288.108 76.9544 286.407 92.4052C286.407 92.4052 290.174 79.0516 276.323 76.7404C262.472 74.4292 259.475 93.518 265.671 100.28C265.712 100.195 263.12 94.8876 266.117 91.3352Z" fill="#263238"/>
<path d="M282.641 78.7092C284.423 80.5924 285.638 83.032 286.043 85.6428C286.043 87.5688 283.572 88.9384 283.572 88.9384L280.575 84.744V88.382C275.634 87.7828 272.84 84.958 271.18 80.9776L273.974 75.8416C273.974 75.8416 281.021 77.2112 282.641 78.7092Z" fill="#263238"/>
<path d="M286.691 78.7948C286.691 78.7948 279.036 66.5112 268.061 71.7328C257.045 76.9116 257.328 84.2304 259.799 91.2068C259.799 91.2068 269.722 84.0164 274.217 81.534C278.713 79.0944 286.691 78.7948 286.691 78.7948Z" fill="#407BFF"/>
<path opacity="0.2" d="M286.691 78.7948C286.691 78.7948 279.036 66.5112 268.061 71.7328C257.045 76.9116 257.328 84.2304 259.799 91.2068C259.799 91.2068 269.722 84.0164 274.217 81.534C278.713 79.0944 286.691 78.7948 286.691 78.7948Z" fill="black"/>
<path d="M280.008 77.9388C286.367 76.5264 288.675 75.8844 294.791 76.398C295.763 76.4836 296.775 76.612 297.585 77.1684C298.436 77.7248 299.043 78.7948 298.76 79.7792C298.598 80.464 298.193 81.0632 297.626 81.4056C295.601 82.5612 291.308 83.1176 288.27 83.8452L286.893 81.4056C286.043 80.3356 284.463 79.4368 282.884 79.5652C280.778 79.6936 278.064 80.1216 275.958 81.106C270.936 83.3744 266.886 85.8568 262.431 89.3236C265.874 85.3004 268.304 83.246 273.002 80.678C274.298 79.9504 276.201 78.752 280.008 77.9388Z" fill="#407BFF"/>
<path d="M264.375 72.3748C264.699 71.8612 265.266 71.6044 265.833 71.5616C266.4 71.5188 266.967 71.7756 267.413 72.118L264.294 74.044C264.011 73.5304 264.051 72.8456 264.375 72.3748Z" fill="#407BFF"/>
<path d="M285.03 117.7C285.435 118.042 293.333 117.529 296.614 123.05C299.57 127.972 313.421 146.333 312.935 153.224C312.53 159.344 295.763 177.363 295.763 177.363L291.835 170.858L302.202 153.352L291.105 139.014L285.03 117.7Z" fill="#263238"/>
<path opacity="0.3" d="M294.71 144.236C294.71 144.236 293.09 129.727 292.645 125.19C292.645 125.19 296.452 129.984 296.735 135.719C297.019 141.454 294.71 144.236 294.71 144.236Z" fill="black"/>
<path d="M258.544 171.157C257.774 161.912 254.372 147.532 249.026 129.727C247.285 123.906 252.874 118.342 252.874 118.342C252.874 118.342 257.531 117.144 258.26 117.058C259.07 116.972 265.347 116.159 266.198 116.116C270.855 115.688 270.289 119.926 274.339 119.926C275.716 119.926 276.283 116.116 277.7 116.202C279.118 116.288 280.535 116.416 281.953 116.544C282.439 116.587 285.395 116.63 285.84 116.673C285.84 116.673 291.592 123.136 293.455 130.668C294.427 134.478 295.196 136.061 294.994 145.434C294.953 151.812 292.361 162.726 291.956 171.671L258.544 171.157Z" fill="#263238"/>
<path opacity="0.2" d="M264.781 116.074L271.909 127.244L274.541 123.007C274.541 123.007 279.158 125.276 279.361 125.318C279.523 125.404 279.077 116.074 279.077 116.074L274.298 121.167L264.781 116.074Z" fill="black"/>
<path d="M279.361 116.33L276.607 114.062L274.622 118.042L267.373 112.735L264.781 116.074L271.342 124.762L274.339 119.926L277.822 123.392L279.361 116.33Z" fill="#407BFF"/>
<path d="M293.171 141.754L287.177 143.68L281.426 141.754L281.102 139.913H293.171V141.754Z" fill="black"/>
<path d="M272.233 141.754L265.955 143.68L259.921 141.754L259.556 139.913H272.233V141.754Z" fill="black"/>
<path d="M285.557 126.945C284.545 128.314 282.844 128.4 281.71 127.116C281.993 130.454 283.816 133.322 286.327 134.435C288.635 132.851 289.971 129.684 289.688 126.346C289.634 126.431 289.58 126.503 289.526 126.56C288.554 127.972 286.813 128.015 285.679 126.731C285.652 126.816 285.611 126.888 285.557 126.945Z" fill="#407BFF"/>
<path opacity="0.4" d="M285.557 126.945C284.545 128.314 282.844 128.4 281.71 127.116C281.993 130.454 283.816 133.322 286.327 134.435C288.635 132.851 289.971 129.684 289.688 126.346C289.634 126.431 289.58 126.503 289.526 126.56C288.554 127.972 286.813 128.015 285.679 126.731C285.652 126.816 285.611 126.888 285.557 126.945Z" fill="white"/>
<path opacity="0.2" d="M286.327 134.435L285.679 126.731C285.733 126.788 285.786 126.845 285.84 126.902C287.055 128.1 288.756 127.844 289.688 126.346C289.971 129.684 288.635 132.851 286.327 134.435Z" fill="white"/>
<path d="M253.684 117.4C253.684 117.4 253.36 119.155 254.939 119.07C256.519 118.984 262.796 118.385 262.796 118.385L262.148 116.587C262.148 116.587 256.519 115.517 253.684 117.4Z" fill="#407BFF"/>
<path d="M289.729 116.63C289.729 116.63 290.053 118.428 288.473 118.299C287.258 118.256 283.37 117.957 281.75 117.828C281.305 117.786 280.9 117.486 280.738 117.058L280.292 116.074C280.292 116.074 286.894 114.79 289.729 116.63Z" fill="#407BFF"/>
<path d="M253.441 219.264L251.74 218.879C250.727 218.622 250.12 217.552 250.363 216.525L262.715 160.243C262.958 159.173 263.971 158.531 264.943 158.788L266.644 159.173C267.656 159.43 268.264 160.5 268.021 161.527L255.668 217.809C255.425 218.879 254.413 219.521 253.441 219.264Z" fill="#263238"/>
<path d="M263.687 170.986L273.367 173.725C274.055 173.896 274.744 173.468 274.946 172.741L275.23 171.542C275.432 170.815 275.027 170.087 274.339 169.873L264.659 167.177C263.971 166.963 263.282 167.391 263.12 168.118L262.796 169.36C262.594 170.087 262.999 170.815 263.687 170.986Z" fill="#263238"/>
<g opacity="0.3">
<path d="M253.441 219.264L251.74 218.879C250.727 218.622 250.12 217.552 250.363 216.525L262.715 160.243C262.958 159.173 263.971 158.531 264.943 158.788L266.644 159.173C267.656 159.43 268.264 160.5 268.021 161.527L255.668 217.809C255.425 218.879 254.413 219.521 253.441 219.264Z" fill="black"/>
<path d="M263.687 170.986L273.367 173.725C274.055 173.896 274.744 173.468 274.946 172.741L275.23 171.542C275.432 170.815 275.027 170.087 274.339 169.873L264.659 167.177C263.971 166.963 263.282 167.391 263.12 168.118L262.796 169.36C262.594 170.087 262.999 170.815 263.687 170.986Z" fill="black"/>
</g>
<path d="M253.805 118.813C253.319 119.198 249.958 118.128 245.705 123.606C241.939 128.571 224.281 146.932 224.888 153.78C225.374 159.944 248.986 179.674 248.986 179.674L253.36 173.982L238.618 153.909L252.793 139.571L253.805 118.813Z" fill="#263238"/>
<path d="M252.307 174.795C252.307 174.795 255.83 169.531 257.329 169.188C258.827 168.846 265.672 169.745 265.793 170.772C265.955 171.842 264.902 171.97 264.902 171.97L266.603 174.025C266.603 174.025 266.603 174.667 265.793 174.795C265.793 174.795 265.753 176.293 264.943 176.379C264.173 176.422 261.095 175.352 261.095 175.352L263.647 177.192C263.647 177.192 264.052 177.877 262.108 177.663C260.123 177.492 259.435 176.422 259.435 176.422C259.435 176.422 254.939 180.488 252.712 180.488C250.484 180.488 248.986 179.674 248.986 179.674L252.307 174.795Z" fill="#FDBBB5"/>
<path opacity="0.3" d="M252.185 140.555L250.768 134.092L247.001 145.434L252.185 140.555Z" fill="black"/>
<path d="M291.794 138.972H281.183V136.703H291.794V138.972Z" stroke="#407BFF" stroke-miterlimit="10"/>
<path d="M271.301 138.972H260.69V136.703H271.301V138.972Z" stroke="#407BFF" stroke-miterlimit="10"/>
<path opacity="0.2" d="M274.339 119.926C274.339 119.926 279.806 149.8 279.077 171.157" stroke="black" stroke-width="2" stroke-miterlimit="10"/>
<path opacity="0.2" d="M260.245 141.796L261.743 150.1L267.778 152.796L272.233 148.516L271.666 139.913" stroke="black" stroke-width="2" stroke-miterlimit="10"/>
<path opacity="0.2" d="M281.71 140.042L283.208 150.228L288.757 152.882L292.888 148.644L292.361 140.042" stroke="black" stroke-width="2" stroke-miterlimit="10"/>
<path d="M234.73 136.703C234.73 136.703 235.904 138.201 239.468 136.018C242.992 133.836 245.705 128.999 245.705 128.999L243.559 126.26L234.73 136.703Z" fill="#407BFF"/>
<path d="M293.171 172.441C293.171 172.441 290.417 167.22 289.243 166.877C288.068 166.535 282.722 167.434 282.6 168.461C282.519 169.488 283.33 169.616 283.33 169.616L281.993 171.714C281.993 171.714 281.993 172.313 282.6 172.441C282.6 172.441 282.641 173.982 283.249 174.025C283.897 174.11 286.286 172.998 286.286 172.998L284.302 174.881C284.302 174.881 283.978 175.566 285.517 175.352C287.056 175.138 287.582 174.11 287.582 174.11C287.582 174.11 291.106 178.176 292.847 178.176C294.589 178.176 295.763 177.363 295.763 177.363L293.171 172.441Z" fill="#FDBBB5"/>
<path d="M207.351 371.376L206.825 364.57H219.42L218.61 371.932L209.295 375.827L207.351 371.376Z" fill="#263238"/>
<path d="M219.137 371.804H215.775C215.006 371.804 214.318 372.232 213.872 372.874C211.928 375.656 210.47 374.586 208.364 371.975C207.027 371.804 206.704 373.43 206.582 373.858L204.071 383.488C203.869 384.301 204.273 385.157 205.043 385.371C205.178 385.428 205.327 385.443 205.489 385.414C209.539 385.414 211.483 385.414 216.545 385.414H232.016C236.228 385.414 237.119 380.92 235.378 380.535C227.561 378.694 222.013 376.255 219.583 373.858C219.137 373.43 219.623 373.13 219.137 371.804Z" fill="#263238"/>
<path d="M221.445 374.543C220.311 374.714 219.218 375.442 218.61 376.469" stroke="#407BFF" stroke-linecap="round" stroke-linejoin="round"/>
<path d="M223.552 376.212C222.377 376.383 221.324 377.111 220.676 378.138" stroke="#407BFF" stroke-linecap="round" stroke-linejoin="round"/>
<path d="M226.144 377.582C224.969 377.753 223.916 378.48 223.268 379.55" stroke="#407BFF" stroke-linecap="round" stroke-linejoin="round"/>
<path d="M213.669 198.977C213.669 198.949 213.669 198.906 213.669 198.849C213.548 198.421 213.426 197.993 213.345 197.565C213.345 197.536 213.345 197.493 213.345 197.436C213.062 196.238 212.778 195.211 212.535 194.184H159.845C159.845 194.184 159.845 194.569 159.845 194.826C159.845 195.04 159.845 195.382 159.845 195.767C159.845 196.11 159.845 196.281 159.845 196.58V197.094C159.845 197.265 159.845 197.451 159.845 197.65C159.845 198.563 159.845 199.605 159.845 200.775C159.845 201.203 159.845 201.645 159.845 202.102C159.845 202.358 159.845 202.615 159.845 202.872C159.845 203.129 159.845 203.6 159.845 203.985C159.683 214.599 159.318 231.976 158.792 248.925C158.792 249.61 158.792 250.294 158.751 250.936C158.67 251.578 158.751 252.006 158.751 252.52C158.549 258.512 158.346 264.333 158.103 269.726C157.82 275.118 157.577 280.212 157.293 284.449C157.293 284.748 157.293 285.048 157.212 285.39C157.212 285.947 157.131 286.546 157.091 287.145C155.147 312.098 156.848 355.882 157.212 371.418H175.316C175.316 371.418 180.581 308.288 183.983 282.651C184.023 282.266 184.104 281.838 184.185 281.453C186.048 271.352 188.195 252.263 190.017 234.373L194.472 251.664C204.719 293.137 205.367 372.702 205.367 372.702L221.283 373.173C231.773 309.615 219.339 226.669 213.669 198.977Z" fill="#263238"/>
<path d="M156.322 384.772H172.481C172.481 384.772 172.846 384.044 172.441 382.161C172.387 381.847 172.306 381.519 172.198 381.177C172.198 381.148 172.198 381.12 172.198 381.091C172.036 380.578 171.874 379.936 171.671 379.208C170.942 376.34 170.416 369.749 170.416 369.749C170.416 369.749 167.378 366.539 164.219 368.037C161.465 369.364 161.87 371.076 161.87 371.076C161.87 371.076 161.83 375.442 159.764 377.41C158.468 378.652 157.172 379.593 156.524 381.091C156.416 381.377 156.335 381.69 156.281 382.033C156.254 382.061 156.241 382.104 156.241 382.161C156.119 382.889 156.119 383.745 156.322 384.772Z" fill="#263238"/>
<path d="M162.761 374.158C163.693 373.387 164.867 373.516 165.677 374.329C165.92 374.586 166.244 374.2 166.042 373.986C164.989 372.959 163.531 372.874 162.437 373.815C162.194 373.986 162.518 374.372 162.761 374.158Z" fill="#407BFF"/>
<path d="M162.316 375.741C163.207 375.014 164.422 375.099 165.232 375.955C165.434 376.169 165.799 375.827 165.556 375.57C164.543 374.543 163.085 374.457 161.951 375.399C161.708 375.613 162.073 375.955 162.316 375.741Z" fill="#407BFF"/>
<path d="M161.83 377.239C162.761 376.469 163.936 376.554 164.786 377.41C164.989 377.624 165.313 377.282 165.11 377.068C164.098 375.998 162.64 375.955 161.506 376.854C161.263 377.068 161.627 377.41 161.83 377.239Z" fill="#407BFF"/>
<path opacity="0.3" d="M193.569 223.179L189.031 210.282L188.486 208.733L188.075 210.322L188.56 210.448C188.075 210.322 188.075 210.322 188.075 210.323L188.075 210.323L188.075 210.325L188.073 210.332L188.066 210.359L188.038 210.467L187.932 210.875C187.841 211.227 187.711 211.73 187.554 212.336C187.239 213.546 186.818 215.166 186.39 216.8C185.962 218.434 185.528 220.082 185.189 221.351C185.019 221.985 184.873 222.524 184.764 222.917C184.729 223.044 184.697 223.155 184.67 223.249C184.479 223.22 184.216 223.172 183.886 223.104C183.123 222.947 182.037 222.697 180.733 222.381C178.128 221.75 174.67 220.864 171.215 219.963C167.761 219.062 164.313 218.146 161.729 217.455C160.437 217.11 159.36 216.821 158.607 216.618C158.267 216.527 157.992 216.453 157.794 216.399V213.72L189.164 193.963L215.359 210.791L216.224 216.05L193.569 223.179ZM184.946 223.28C184.947 223.28 184.946 223.28 184.944 223.28L184.946 223.28Z" fill="black" stroke="#42462D"/>
<path d="M218.513 212.291L218.519 212.321L194.321 219.404L189.737 198.229L188.766 198.204L182.816 220.043L155.234 213.957L163.456 165.849L163.47 165.767L163.457 165.684L155.258 115.053L171.706 108.016L171.872 107.945L171.954 107.784L174.859 102.096L186.698 101.644L190.189 105.169L190.277 105.259L190.398 105.295C190.939 105.461 192.425 105.873 194.374 106.414C199.015 107.703 206.284 109.722 209.695 110.87L209.701 111.125L209.742 112.833C209.777 114.307 209.826 116.415 209.884 118.954C210.001 124.032 210.152 130.834 210.294 137.73C210.436 144.626 210.567 151.614 210.643 157.066C210.681 159.791 210.705 162.132 210.71 163.883C210.714 165.648 210.698 166.777 210.662 167.12C210.632 167.366 210.649 167.755 210.689 168.224C210.731 168.711 210.803 169.33 210.899 170.058C211.092 171.514 211.388 173.426 211.752 175.631C212.48 180.041 213.484 185.639 214.499 191.139C215.514 196.641 216.541 202.048 217.314 206.08C217.7 208.096 218.023 209.768 218.25 210.936C218.363 211.52 218.452 211.979 218.513 212.291Z" fill="white" stroke="#42462D"/>
<path d="M186.899 101.136C187.425 101.65 190.544 104.817 190.544 104.817L194.148 111.965L192.123 115.303L195.404 116.587L189.653 159.43" stroke="#42462D" stroke-width="1.5" stroke-linecap="round" stroke-linejoin="round"/>
<path d="M171.509 107.556L170.861 116.587L174.547 118.856L171.914 123.264L189.653 159.43L188.924 199.491" stroke="#42462D" stroke-width="1.5" stroke-linecap="round" stroke-linejoin="round"/>
<path d="M174.694 115.646C174.694 115.995 174.447 116.216 174.182 116.216C173.917 116.216 173.669 115.995 173.669 115.646C173.669 115.27 173.941 115.033 174.182 115.033C174.423 115.033 174.694 115.27 174.694 115.646Z" fill="white" stroke="#42462D"/>
<path d="M191.664 112.093C191.664 112.469 191.392 112.706 191.152 112.706C190.911 112.706 190.639 112.469 190.639 112.093C190.639 111.744 190.886 111.523 191.152 111.523C191.417 111.523 191.664 111.744 191.664 112.093Z" fill="white" stroke="#42462D"/>
<path d="M155.818 116.442C155.818 116.443 155.819 116.444 155.819 116.444L155.818 116.442ZM155.912 116.055C155.862 116.071 155.816 116.086 155.772 116.1C155.752 115.821 155.751 115.448 155.763 115.056C155.776 114.646 155.802 114.229 155.832 113.902C155.843 113.773 155.856 113.66 155.868 113.57L156.158 113.453C156.504 113.315 156.998 113.118 157.593 112.881C158.783 112.408 160.375 111.777 161.986 111.146C163.598 110.515 165.227 109.885 166.489 109.413C167.121 109.177 167.658 108.981 168.054 108.846C168.173 108.805 168.278 108.77 168.368 108.741C168.368 108.754 168.369 108.767 168.369 108.781C168.376 109.108 168.33 109.567 168.26 110.053C168.191 110.533 168.102 111.016 168.029 111.38C168.003 111.511 167.98 111.625 167.96 111.719L167.673 111.824C167.326 111.952 166.83 112.134 166.233 112.352C165.041 112.789 163.448 113.37 161.847 113.95C160.245 114.531 158.635 115.109 157.409 115.54C156.796 115.755 156.281 115.933 155.912 116.055ZM155.9 113.375C155.9 113.375 155.9 113.376 155.899 113.378C155.9 113.376 155.9 113.375 155.9 113.375Z" fill="#263238" stroke="#42462D"/>
<path d="M158.5 113.859C158.5 113.859 158.499 113.86 158.498 113.862C158.499 113.86 158.5 113.859 158.5 113.859ZM158.421 113.815C158.459 113.841 158.478 113.863 158.487 113.877C158.477 113.888 158.459 113.904 158.429 113.924C158.341 113.982 158.196 114.033 158.023 114.033C157.849 114.033 157.704 113.982 157.616 113.924C157.586 113.904 157.568 113.888 157.558 113.877C157.567 113.863 157.586 113.841 157.624 113.815C157.708 113.756 157.849 113.706 158.023 113.706C158.196 113.706 158.337 113.756 158.421 113.815ZM157.545 113.859C157.545 113.859 157.546 113.86 157.547 113.862C157.546 113.86 157.545 113.859 157.545 113.859ZM157.55 113.895C157.55 113.895 157.55 113.894 157.55 113.893L157.55 113.895ZM158.495 113.893C158.495 113.894 158.495 113.895 158.495 113.895L158.495 113.893Z" fill="#407BFF" stroke="#42462D"/>
<path d="M162.55 112.532C162.55 112.532 162.549 112.533 162.548 112.535C162.549 112.533 162.55 112.532 162.55 112.532ZM162.471 112.488C162.509 112.514 162.528 112.536 162.537 112.55C162.527 112.561 162.509 112.577 162.479 112.597C162.391 112.656 162.246 112.706 162.073 112.706C161.899 112.706 161.754 112.656 161.666 112.597C161.636 112.577 161.618 112.561 161.608 112.55C161.617 112.536 161.636 112.514 161.674 112.488C161.758 112.43 161.899 112.379 162.073 112.379C162.246 112.379 162.387 112.43 162.471 112.488ZM161.595 112.532C161.595 112.532 161.596 112.533 161.597 112.535C161.596 112.533 161.595 112.532 161.595 112.532ZM161.6 112.568C161.6 112.568 161.6 112.567 161.6 112.566L161.6 112.568ZM162.545 112.566C162.545 112.567 162.545 112.568 162.545 112.568L162.545 112.566Z" fill="#407BFF" stroke="#42462D"/>
<path d="M166.521 111.161C166.564 111.191 166.582 111.215 166.59 111.228C166.581 111.243 166.56 111.269 166.513 111.303C166.421 111.369 166.281 111.422 166.123 111.422C165.964 111.422 165.824 111.369 165.732 111.303C165.686 111.269 165.664 111.243 165.655 111.228C165.663 111.215 165.681 111.191 165.724 111.161C165.808 111.103 165.949 111.052 166.123 111.052C166.296 111.052 166.437 111.103 166.521 111.161ZM165.65 111.241C165.65 111.241 165.65 111.241 165.65 111.239L165.65 111.241ZM166.595 111.239C166.595 111.241 166.595 111.241 166.595 111.241L166.595 111.239Z" fill="#407BFF" stroke="#42462D"/>
<path d="M196.081 108.229L195.797 108.125C195.778 108.032 195.756 107.918 195.731 107.789C195.662 107.425 195.576 106.941 195.509 106.46C195.442 105.973 195.397 105.513 195.402 105.183C195.402 105.172 195.403 105.161 195.403 105.15C195.49 105.177 195.59 105.211 195.703 105.249C196.101 105.384 196.639 105.578 197.273 105.812C198.539 106.28 200.173 106.905 201.79 107.531C203.406 108.156 205.004 108.782 206.197 109.251C206.794 109.486 207.29 109.681 207.636 109.818L207.91 109.926C207.92 110.02 207.93 110.134 207.939 110.263C207.965 110.598 207.988 111.022 208.001 111.439C208.013 111.836 208.014 112.215 207.999 112.501C207.958 112.488 207.914 112.474 207.868 112.459C207.495 112.337 206.977 112.16 206.361 111.944C205.13 111.514 203.517 110.935 201.912 110.355C200.308 109.775 198.714 109.193 197.521 108.757C196.925 108.538 196.428 108.356 196.081 108.229ZM195.078 105.058C195.078 105.058 195.079 105.058 195.08 105.058L195.078 105.058Z" fill="#263238" stroke="#42462D"/>
<path d="M205.732 110.438C205.558 110.438 205.417 110.387 205.333 110.329C205.29 110.299 205.272 110.275 205.264 110.262C205.273 110.247 205.295 110.221 205.341 110.187C205.433 110.121 205.573 110.068 205.732 110.068C205.89 110.068 206.03 110.121 206.122 110.187C206.169 110.221 206.19 110.247 206.199 110.262C206.191 110.275 206.173 110.299 206.13 110.329C206.046 110.387 205.905 110.438 205.732 110.438ZM205.259 110.249C205.259 110.249 205.259 110.249 205.259 110.251L205.259 110.249ZM206.204 110.249C206.204 110.249 206.204 110.249 206.204 110.251L206.204 110.249Z" fill="#407BFF" stroke="#42462D"/>
<path d="M201.681 109.111C201.508 109.111 201.367 109.06 201.283 109.002C201.245 108.976 201.226 108.954 201.217 108.94C201.227 108.929 201.245 108.913 201.275 108.893C201.363 108.834 201.508 108.784 201.681 108.784C201.881 108.784 202.022 108.837 202.098 108.889C202.13 108.911 202.145 108.928 202.152 108.937C202.147 108.95 202.134 108.975 202.089 109.006C202.017 109.058 201.881 109.111 201.681 109.111ZM201.209 108.922C201.209 108.922 201.209 108.923 201.209 108.924L201.209 108.922ZM201.206 108.955C201.205 108.957 201.204 108.958 201.204 108.958C201.204 108.958 201.205 108.957 201.206 108.955ZM202.157 108.946C202.157 108.946 202.156 108.945 202.155 108.943C202.157 108.945 202.157 108.946 202.157 108.946ZM202.154 108.928C202.154 108.927 202.153 108.927 202.153 108.926C202.153 108.926 202.154 108.926 202.154 108.926C202.154 108.926 202.154 108.927 202.154 108.928Z" fill="#407BFF" stroke="#42462D"/>
<path d="M197.632 107.784C197.459 107.784 197.334 107.734 197.265 107.683C197.219 107.649 197.205 107.623 197.202 107.61C197.208 107.6 197.223 107.582 197.256 107.559C197.33 107.507 197.459 107.457 197.632 107.457C197.831 107.457 197.972 107.51 198.048 107.563C198.08 107.584 198.095 107.601 198.102 107.61C198.097 107.624 198.084 107.648 198.039 107.679C197.967 107.731 197.831 107.784 197.632 107.784ZM197.197 107.618C197.197 107.618 197.198 107.617 197.198 107.615C197.198 107.617 197.197 107.618 197.197 107.618ZM198.107 107.62C198.107 107.62 198.106 107.619 198.105 107.616C198.107 107.618 198.107 107.62 198.107 107.62ZM198.104 107.601C198.104 107.6 198.104 107.6 198.104 107.599C198.104 107.599 198.104 107.599 198.104 107.599C198.104 107.6 198.104 107.6 198.104 107.601Z" fill="#407BFF" stroke="#42462D"/>
<path d="M174.547 101.607C174.547 101.607 174.992 103.533 175.681 106.572C178.475 118.513 189.208 159.901 189.653 159.43C190.301 158.66 186.899 101.136 186.899 101.136L174.547 101.607Z" fill="white"/>
<path opacity="0.4" d="M178.516 118.042L182.12 111.879L187.79 116.587L182.444 113.206L178.516 118.042Z" fill="black"/>
<path d="M179.569 116.587L182.08 119.712L185.603 118.984L186.13 115.56L182.12 111.879L179.569 116.587Z" fill="#263238"/>
<path d="M182.079 119.712L183.74 138.372C183.74 138.372 189.126 158.959 189.45 158.959C190.22 159.045 189.248 137.388 189.045 137.345L185.603 118.984L182.079 119.712Z" fill="#263238"/>
<path d="M196.092 164.951L202.249 181.044C202.249 181.044 229.1 173.768 234.243 169.36C234.243 169.36 240.116 165.208 237.726 156.99C235.337 148.73 214.844 112.821 213.71 112.093C212.616 111.408 210.186 110.51 210.186 110.51C210.186 110.51 209.457 140.298 210.713 141.112L218.246 158.916L196.092 164.951Z" fill="#407BFF"/>
<path opacity="0.3" d="M211.685 119.712C211.685 119.712 214.236 135.59 211.158 143.637C211.158 143.637 210.875 127.886 211.685 119.712Z" fill="black"/>
<path d="M202.249 163.582L208.89 179.375L207.352 179.803L200.912 163.967L202.249 163.582Z" fill="#263238"/>
<path d="M205.043 162.469L211.685 178.604L210.47 178.947L203.99 162.768L205.043 162.469Z" fill="#263238"/>
<path d="M224.119 161.484L218.246 158.916L196.092 164.951L202.249 181.044" stroke="#263238" stroke-width="1.5" stroke-linecap="round" stroke-linejoin="round"/>
<path d="M174.425 182.028C174.263 181.001 176.612 179.888 176.612 179.888C176.612 179.888 174.83 180.102 175.721 178.604C176.612 177.106 186.372 172.741 187.101 171.756C187.83 170.772 186.251 169.916 184.834 169.188C183.376 168.461 181.107 166.578 183.294 166.492C185.522 166.406 187.831 167.262 190.787 167.348C192.934 167.391 194.756 168.76 195.606 169.531L197.308 169.103L200.71 178.005L197.226 178.776C196.538 179.76 195.526 180.616 194.23 181.472C192.002 182.927 187.182 184.639 184.874 185.838C182.363 187.164 179.326 188.063 179.569 186.608C179.852 185.153 184.55 183.484 184.55 183.484C184.105 183.355 176.045 186.565 175.438 185.624C175.033 184.939 175.235 183.997 176.45 183.312C177.341 182.756 183.74 179.931 184.064 179.846C184.064 179.846 178.758 181.729 176.166 182.499C175.032 182.842 174.506 182.285 174.425 182.028Z" fill="#B97964"/>
<path d="M211.685 119.712C211.321 119.669 211.159 158.916 211.159 158.916" stroke="#263238" stroke-width="1.5" stroke-linecap="round" stroke-linejoin="round"/>
<path d="M172.643 222.988H139.311C137.651 222.988 136.314 221.533 136.314 219.778V190.546C136.314 188.791 137.651 187.336 139.311 187.336H172.643C174.303 187.336 175.64 188.791 175.64 190.546V219.778C175.64 221.533 174.303 222.988 172.643 222.988Z" fill="#407BFF"/>
<path d="M149.112 211.603C149.112 211.603 146.277 222.132 149.72 225.085C153.162 227.996 154.094 225.085 154.094 225.085C154.094 225.085 155.916 227.182 157.982 225.214C157.982 225.214 161.91 226.198 162.72 225.214C163.53 224.186 162.72 223.202 162.72 223.202C162.72 223.202 159.642 222.945 158.63 221.918C157.617 220.934 157.374 217.766 157.374 217.766C157.374 217.766 159.075 221.362 160.817 221.019C162.558 220.677 163.166 219.607 161.91 218.879C160.655 218.109 158.103 210.319 158.103 210.319L148.991 210.105L149.112 211.603Z" fill="#B97964"/>
<path d="M154.701 114.747C154.701 114.747 150.57 116.031 149.517 119.926C148.424 123.82 140.648 167.305 141.053 170.002C141.458 172.698 144.617 211.817 144.617 211.817H160.209C160.209 211.817 157.293 168.589 157.536 168.889C157.779 169.146 161.91 145.862 162.072 145.52C162.234 145.135 154.701 114.747 154.701 114.747Z" fill="white"/>
<path d="M162.964 165.764L155.997 125.404" stroke="#263238" stroke-width="1.5" stroke-linecap="round" stroke-linejoin="round"/>
<path d="M143.604 199.491C143.604 199.534 159.359 199.491 159.359 199.491L159.521 201.631L143.766 201.46L143.604 199.491Z" fill="#263238"/>
<path d="M143.321 194.911C143.321 194.954 159.075 194.911 159.075 194.911L159.237 197.051L143.483 196.88L143.321 194.911Z" fill="#263238"/>
<path d="M186.899 101.136C186.899 101.136 186.251 100.195 186.535 96.6852L172.238 87.7828C172.238 87.7543 172.238 87.7685 172.238 87.8256C172.684 89.024 173.17 90.4364 173.575 91.9344L173.048 92.234C175.195 103.02 174.546 101.607 174.546 101.607L182.404 108.156L186.899 101.136Z" fill="#B97964"/>
<g opacity="0.2">
<path d="M179.366 99.724C181.188 101.65 184.185 102.592 186.899 102.463C186.818 102.206 186.818 101.821 186.777 101.564C186.696 101.179 186.656 100.58 186.615 100.152C186.575 99.6384 186.534 99.082 186.494 98.5684C186.534 98.3544 186.615 98.3544 186.615 98.1404V97.7124L178.272 95.4012C177.665 95.9576 177.867 98.1404 179.366 99.724Z" fill="black"/>
</g>
<path d="M166.932 79.3512C164.381 70.2348 171.468 61.1612 180.702 62.7448C190.058 64.3284 194.229 77.7676 194.148 86.5416C194.108 96.3 184.226 103.148 176.004 97.6268C170.537 93.946 169.484 88.4676 166.932 79.3512Z" fill="#B97964"/>
<path d="M172.602 63.986L161.627 73.7444C160.25 75.2424 160.452 77.0828 162.801 79.4368C162.936 79.7792 163.112 80.1216 163.328 80.464C164.422 82.176 167.661 85.8996 170.496 89.0668C170.253 88.6103 170.024 88.1109 169.808 87.5688C169.079 85.7712 168.147 83.246 167.135 80.2072C167.864 80.2072 168.391 80.3356 168.836 80.5924C172.36 82.2188 173.696 83.9308 175.032 82.0904C175.802 80.9348 174.506 77.6392 173.615 74.8144C173.372 74.0868 172.926 72.4176 172.805 70.7484C172.602 68.48 174.627 66.5112 174.627 66.5112C174.627 66.5112 174.749 66.34 174.83 66.0832C177.868 67.8808 183.132 69.9352 187.992 66.982C195.242 62.5308 178.556 55.9396 172.602 63.986Z" fill="#263238"/>
<path d="M164.948 86.242C166.041 88.6388 168.066 90.2652 170.051 90.9072C173.007 91.8916 173.574 88.5532 172.845 85.5144C172.197 82.818 170.942 79.5652 167.904 79.9076C164.948 80.25 163.652 83.5456 164.948 86.242Z" fill="#B97964"/>
<path d="M179.285 79.9076C179.407 80.8492 180.014 81.534 180.622 81.4484C181.189 81.32 181.553 80.464 181.432 79.5224C181.27 78.538 180.662 77.8532 180.095 77.9816C179.488 78.0672 179.123 78.9232 179.285 79.9076Z" fill="#263238"/>
<path d="M188.56 79.2228C188.722 80.1644 189.329 80.892 189.896 80.7636C190.503 80.678 190.868 79.7792 190.706 78.8376C190.584 77.896 189.977 77.1684 189.37 77.2968C188.803 77.3824 188.438 78.2384 188.56 79.2228Z" fill="#263238"/>
<path d="M185.846 78.2384C185.846 78.2384 189.45 82.5184 190.665 84.316C189.572 85.7284 187.304 85.5572 187.304 85.5572L185.846 78.2384Z" fill="#A24E3F"/>
<path d="M177.057 75.4564C177.219 75.4564 177.381 75.4136 177.503 75.2852C178.799 73.83 180.257 74.044 180.378 74.0868C180.621 74.1296 180.864 73.9584 180.905 73.7016C180.945 73.4448 180.783 73.2308 180.54 73.188C180.459 73.188 178.515 72.8456 176.855 74.686C176.693 74.8572 176.693 75.1568 176.895 75.328C176.949 75.3851 177.003 75.4279 177.057 75.4564Z" fill="#263238"/>
<path opacity="0.2" d="M166.649 83.2032C166.932 82.5612 167.621 82.2616 168.309 82.3044C168.957 82.3472 169.565 82.7752 170.051 83.246C170.618 83.8452 171.063 84.6156 171.266 85.4288" stroke="black" stroke-linecap="round" stroke-linejoin="round"/>
<path d="M192.245 73.5732C192.299 73.5447 192.353 73.5019 192.407 73.4448C192.569 73.2308 192.528 72.9312 192.326 72.8028C190.382 71.3476 188.559 72.118 188.478 72.118C188.235 72.2036 188.154 72.4604 188.235 72.7172C188.316 72.9312 188.56 73.0596 188.762 72.974C188.843 72.9312 190.26 72.3748 191.84 73.5304C191.961 73.616 192.083 73.6588 192.245 73.5732Z" fill="#263238"/>
<path d="M180.865 88.0396C180.865 88.0396 183.173 89.3236 187.061 89.0668C187.061 89.0668 186.535 91.8916 184.024 91.8488C181.027 91.806 180.865 88.0396 180.865 88.0396Z" fill="white"/>
<path d="M183.578 86.6272C185.036 86.5416 186.454 86.9696 187.547 87.9112C187.993 88.2536 188.357 88.6816 188.519 89.1524C189.086 90.6504 183.902 89.9228 181.756 89.238C179.609 88.5532 180.055 87.6544 181.189 87.0552C181.756 86.7556 182.728 86.67 183.578 86.6272Z" fill="#263238"/>
<path d="M160.574 71.476C160.574 71.476 156.362 72.2036 156.119 69.4216C155.835 66.6824 156.848 65.4412 162.923 61.5892C169.038 57.7372 171.226 54.356 179.164 51.9164C187.142 49.434 191.111 50.6752 192.974 54.3988C194.837 58.1224 189.694 62.2312 189.694 62.2312L189.977 65.1416L160.574 71.476Z" fill="#263238"/>
<path d="M170.415 70.4916C170.415 70.4916 176.085 73.1024 184.671 71.6472C193.257 70.192 198.523 69.4216 197.47 68.4372C196.376 67.4528 189.977 65.1416 189.977 65.1416L170.415 70.4916Z" fill="#263238"/>
<path d="M190.503 65.3556L160.938 73.3592L160.574 71.476L189.774 63.1728L190.503 65.3556Z" fill="#407BFF"/>
<path d="M182.08 57.2236C181.189 58.5504 179.447 58.85 178.191 57.9084C178.758 60.6904 180.783 62.8732 183.456 63.5152C185.643 61.846 186.737 58.9784 186.17 56.1536C186.143 56.2392 186.103 56.3105 186.049 56.3676C185.158 57.6944 183.416 57.994 182.201 57.0096C182.147 57.0952 182.107 57.1665 182.08 57.2236Z" fill="#407BFF"/>
<path opacity="0.4" d="M182.08 57.2236C181.189 58.5504 179.447 58.85 178.191 57.9084C178.758 60.6904 180.783 62.8732 183.456 63.5152C185.643 61.846 186.737 58.9784 186.17 56.1536C186.143 56.2392 186.103 56.3105 186.049 56.3676C185.158 57.6944 183.416 57.994 182.201 57.0096C182.147 57.0952 182.107 57.1665 182.08 57.2236Z" fill="white"/>
<path opacity="0.2" d="M183.456 63.5152L182.201 57.0096C182.255 57.0667 182.309 57.1095 182.363 57.138C183.699 57.994 185.4 57.566 186.17 56.1536C186.737 58.9784 185.643 61.846 183.456 63.5152Z" fill="white"/>
<path d="M63.8195 234.715C65.1965 234.758 66.371 233.602 66.4115 232.147L67.91 180.488C67.9505 179.032 66.857 177.791 65.48 177.748C64.0625 177.706 62.9285 178.861 62.888 180.316L61.3895 231.976C61.349 233.431 62.4425 234.672 63.8195 234.715Z" fill="#263238"/>
<path d="M64.103 189.005H55.9625C54.9905 189.005 54.221 188.192 54.221 187.164C54.221 186.18 54.9905 185.367 55.9625 185.367L64.103 185.324C65.0345 185.324 65.8445 186.18 65.8445 187.164C65.8445 188.192 65.0345 189.005 64.103 189.005Z" fill="#263238"/>
<g opacity="0.3">
<path d="M63.8195 234.715C65.1965 234.758 66.371 233.602 66.4115 232.147L67.91 180.488C67.9505 179.032 66.857 177.791 65.48 177.748C64.0625 177.706 62.9285 178.861 62.888 180.316L61.3895 231.976C61.349 233.431 62.4425 234.672 63.8195 234.715Z" fill="black"/>
<path d="M64.103 189.005H55.9625C54.9905 189.005 54.221 188.192 54.221 187.164C54.221 186.18 54.9905 185.367 55.9625 185.367L64.103 185.324C65.0345 185.324 65.8445 186.18 65.8445 187.164C65.8445 188.192 65.0345 189.005 64.103 189.005Z" fill="black"/>
</g>
<path d="M104.522 114.961C104.522 114.961 103.226 109.054 105.615 98.3544C105.615 98.3544 105.089 98.1404 105.089 98.0976C105.413 96.6424 105.777 95.23 106.101 94.0316C106.128 94.0031 106.142 93.9888 106.142 93.9888L92.8985 103.619C93.344 106.957 92.4935 113.548 91.967 116.33C91.967 116.33 90.4685 121.381 96.746 121.295C101.322 121.21 104.522 114.961 104.522 114.961Z" fill="#FFAF6B"/>
<path d="M109.058 69.55C109.058 69.55 104.967 59.706 93.587 63.772C86.4185 66.34 81.356 69.7212 82.085 76.5692C82.6115 81.106 86.7425 84.4872 89.4155 84.316C92.048 84.102 111.326 77.0828 111.326 77.0828C111.326 77.0828 115.66 71.476 109.058 69.55Z" fill="#263238"/>
<g opacity="0.2">
<path d="M99.986 106.016C98.366 108.027 95.4905 109.14 92.8985 109.183C92.939 108.969 92.939 108.584 92.939 108.327C92.9795 107.942 92.9795 107.342 93.02 106.957C93.02 106.444 93.02 105.93 93.02 105.416C92.9795 105.202 92.8985 105.245 92.8985 105.031L92.858 104.603L100.756 101.778C101.404 102.249 101.323 104.432 99.986 106.016Z" fill="black"/>
</g>
<path d="M110.719 85.5144C112.622 76.5264 105.211 68.2232 96.422 70.406C87.4715 72.5888 84.2315 85.8568 84.8795 94.3312C85.5275 103.747 95.531 109.696 103.105 103.79C108.127 99.8524 108.815 94.4596 110.719 85.5144Z" fill="#FFAF6B"/>
<path d="M104.603 71.3904C104.603 71.3904 97.0295 78.8376 89.618 74.9856C82.2065 71.1336 98.528 63.4296 104.603 71.3904Z" fill="#263238"/>
<path d="M103.104 88.6816C104.481 90.3936 105.656 88.6388 108.936 86.7984C109.382 86.5416 109.908 86.3704 110.597 86.3276C109.827 89.3664 109.058 91.8488 108.45 93.6464C108.288 94.16 108.1 94.6451 107.884 95.1016C110.435 91.8916 113.351 88.0396 114.282 86.2848C114.471 85.9424 114.62 85.6143 114.728 85.3004C114.674 85.1577 114.62 85.0293 114.566 84.9152C114.323 84.4016 114.026 83.9308 113.675 83.5028C113.148 82.818 112.5 82.2616 111.771 81.748C109.422 80.0788 106.749 79.3512 104.481 78.966C104.279 81.7908 101.97 87.312 103.104 88.6816Z" fill="#263238"/>
<path d="M102.497 73.616C102.497 73.616 104.562 75.4136 104.522 77.5536C104.522 79.7364 103.914 81.962 103.914 81.962C103.914 81.962 110.111 84.0164 111.65 83.5884C113.189 83.1176 113.958 78.3668 113.958 78.3668C113.958 78.3668 106.263 70.4916 103.55 71.0052C100.836 71.476 102.497 73.616 102.497 73.616Z" fill="#263238"/>
<path d="M108.774 71.0052C108.774 71.0052 112.298 69.978 114.688 73.83C117.077 77.7248 116.105 82.6896 114.728 85.3004C113.311 87.8684 104.603 79.6936 108.774 71.0052Z" fill="#263238"/>
<path d="M113.108 92.02C112.177 94.4168 110.273 96.086 108.451 96.8564C105.616 98.012 104.887 94.8448 105.413 91.8488C105.859 89.1952 106.871 85.9852 109.827 86.1136C112.703 86.1992 114.161 89.3236 113.108 92.02Z" fill="#FFAF6B"/>
<path d="M99.4595 87.4832C99.3785 88.4248 98.852 89.1096 98.285 89.0668C97.6775 89.024 97.2725 88.2108 97.3535 87.2692C97.4345 86.3276 97.961 85.6 98.5685 85.6856C99.1355 85.7284 99.5405 86.5416 99.4595 87.4832Z" fill="#263238"/>
<path d="M90.428 86.884C90.347 87.8256 89.8205 88.5104 89.2535 88.4676C88.646 88.382 88.241 87.5688 88.322 86.67C88.403 85.7284 88.9295 85.0008 89.537 85.0436C90.104 85.1292 90.509 85.9424 90.428 86.884Z" fill="#263238"/>
<path d="M92.372 85.7284C92.372 85.7284 89.1725 90.1368 88.1195 91.9344C89.2535 93.2612 91.4405 92.876 91.4405 92.876L92.372 85.7284Z" fill="#E97F3F"/>
<path d="M100.674 82.4328C100.553 82.4756 100.391 82.4328 100.269 82.3044C98.933 80.9776 97.556 81.2772 97.394 81.32C97.1915 81.4056 96.9485 81.2344 96.908 81.0204C96.827 80.7636 96.989 80.5496 97.1915 80.464C97.2725 80.464 99.1355 79.9932 100.836 81.6624C100.998 81.8336 101.039 82.1332 100.877 82.3044C100.823 82.3615 100.755 82.4043 100.674 82.4328Z" fill="#263238"/>
<path opacity="0.2" d="M111.245 89.1952C110.962 88.596 110.233 88.3392 109.585 88.4248C108.937 88.5532 108.37 88.9812 107.965 89.4948C107.438 90.094 107.073 90.8644 106.911 91.6776" stroke="black" stroke-linecap="round" stroke-linejoin="round"/>
<path d="M85.9325 81.7052C85.8515 81.6767 85.784 81.6196 85.73 81.534C85.568 81.3628 85.6085 81.0632 85.7705 80.9348C87.5525 79.394 89.375 79.9932 89.456 79.9932C89.699 80.0788 89.8205 80.3356 89.7395 80.5496C89.6585 80.8064 89.456 80.9348 89.213 80.8492C89.132 80.8064 87.755 80.3784 86.297 81.6196C86.216 81.7052 86.054 81.748 85.9325 81.7052Z" fill="#263238"/>
<path opacity="0.3" d="M104.36 79.6508C104.36 79.6508 107.964 82.1332 111.569 81.4056C115.214 80.7208 116.145 79.8648 116.145 79.8648L115.862 81.962C115.862 81.962 112.825 83.8452 109.099 83.6312C105.373 83.4172 103.793 82.4328 103.793 82.4328L104.36 79.6508Z" fill="white"/>
<path d="M96.746 94.0744C96.2195 95.3156 94.235 96.5568 93.182 96.0432" stroke="#263238" stroke-width="1.5" stroke-linecap="round" stroke-linejoin="round"/>
<path d="M127.202 382.418H111.042C111.042 382.418 110.678 381.69 111.083 379.764C111.137 379.479 111.218 379.165 111.326 378.823C111.326 378.794 111.326 378.766 111.326 378.737C111.488 378.224 111.65 377.582 111.852 376.854C112.581 373.986 113.108 367.395 113.108 367.395C113.108 367.395 116.145 364.185 119.304 365.683C122.058 367.01 121.653 368.722 121.653 368.722C121.653 368.722 121.694 373.088 123.8 375.056C125.096 376.298 126.351 377.239 126.999 378.737C127.107 379.023 127.202 379.336 127.283 379.679C127.283 379.707 127.283 379.736 127.283 379.764C127.404 380.535 127.404 381.391 127.202 382.418Z" fill="#263238"/>
<path d="M120.762 371.804C119.871 371.033 118.656 371.162 117.846 371.975C117.644 372.232 117.279 371.846 117.522 371.632C118.535 370.562 119.993 370.52 121.086 371.461C121.329 371.632 121.005 372.018 120.762 371.804Z" fill="#407BFF"/>
<path d="M121.208 373.387C120.317 372.66 119.102 372.745 118.292 373.601C118.089 373.815 117.725 373.473 117.968 373.216C118.98 372.189 120.438 372.103 121.572 373.045C121.815 373.259 121.451 373.601 121.208 373.387Z" fill="#407BFF"/>
<path d="M121.694 374.885C120.762 374.115 119.588 374.2 118.778 375.056C118.535 375.27 118.211 374.928 118.413 374.714C119.426 373.644 120.884 373.601 122.018 374.5C122.261 374.714 121.937 375.056 121.694 374.885Z" fill="#407BFF"/>
<path d="M86.621 308.716C85.973 338.377 80.87 368.936 80.87 368.936L64.2245 368.08C64.2245 368.08 63.293 303.11 63.6575 280.811C64.0625 259.411 67.586 190.76 67.586 190.76L101.241 191.53C103.955 205.954 99.3785 221.233 94.721 241.349C92.372 251.536 90.347 262.835 88.6865 279.998C88.079 288.943 87.188 297.974 86.621 308.716Z" fill="#263238"/>
<path opacity="0.4" d="M89.4965 272.122C87.026 255.388 87.998 236.042 90.185 219.307L94.5185 212.716L98.366 225.898C97.2725 230.606 96.017 235.657 94.721 241.264C93.0605 248.368 90.9545 262.492 89.4965 272.122Z" fill="black"/>
<path d="M125.704 303.238C128.215 334.182 124.448 368.936 124.448 368.936L110.719 369.064C110.719 369.064 103.388 313.81 98.366 284.706C91.9265 255.002 86.216 192.086 86.216 192.086L120.114 191.059C125.46 205.226 123.8 220.463 122.423 240.065C121.654 250.594 121.289 269.854 123.071 279.655C124.124 285.39 124.813 293.437 125.704 303.238Z" fill="#263238"/>
<path d="M135.302 153.224C135.181 153.566 137.206 170.13 135.586 177.406C134.533 181.986 120.601 185.838 120.601 185.838V171.157C120.601 171.157 122.788 170.258 123.112 170.13C123.436 170.044 122.383 155.107 122.383 155.107L135.302 153.224Z" fill="#FFAF6B"/>
<path d="M62.3615 145.905C62.4425 146.29 58.109 162.383 58.7165 169.788C59.081 174.496 72.3245 180.53 72.3245 180.53L74.39 165.978C74.39 165.978 72.3245 164.737 72.041 164.566C71.717 164.438 74.9165 149.843 74.9165 149.843L62.3615 145.905Z" fill="#FFAF6B"/>
<path d="M120.884 192.343L122.382 116.63C102.942 112.521 83.948 114.533 79.169 114.875C78.7235 114.875 75.2405 115.432 75.1595 115.945C71.6765 135.89 69.8135 168.589 67.586 190.76" fill="white"/>
<path d="M92.858 108.712L87.5525 114.276L95.8955 125.618L107.235 114.533L104.319 108.498L97.1105 114.276L92.858 108.712Z" fill="white"/>
<path opacity="0.3" d="M87.5525 114.276L91.805 120.824L96.9485 115.389L101.646 120.91L107.235 114.533L101.93 122.964L96.827 116.63L91.643 122.964L87.5525 114.276Z" fill="black"/>
<path opacity="0.2" d="M76.496 141.026L83.219 143.209L89.699 141.026L90.0635 139.014H76.496V141.026Z" fill="black"/>
<path opacity="0.2" d="M103.955 141.026L110.719 143.209L117.199 141.026L117.563 139.014H103.955V141.026Z" fill="black"/>
<path d="M110.921 129.77C112.177 131.011 114.121 130.925 115.255 129.598C115.255 132.766 113.513 135.633 110.759 136.917C108.005 135.633 106.264 132.766 106.264 129.598C106.318 129.655 106.372 129.713 106.426 129.77C107.681 131.011 109.625 130.925 110.759 129.598C110.813 129.655 110.867 129.713 110.921 129.77Z" fill="#407BFF"/>
<path opacity="0.2" d="M110.759 136.917V129.598C110.705 129.655 110.651 129.713 110.597 129.77C109.342 131.011 107.398 130.925 106.264 129.598C106.264 132.766 108.005 135.633 110.759 136.917Z" fill="#42462D"/>
<path d="M75.1595 115.945C75.1595 115.945 69.7325 115.945 66.776 124.719C63.4955 134.478 56.6105 156.006 56.6105 156.006C56.6105 156.006 74.957 159.344 73.499 159.344C72.041 159.344 75.1595 115.945 75.1595 115.945Z" fill="white"/>
<path d="M122.18 116.63C122.18 116.63 130.159 116.93 132.832 129.598C135.505 142.267 137.206 155.45 137.206 155.45L120.601 156.391L122.18 116.63Z" fill="white"/>
<path opacity="0.2" d="M70.2995 158.574L72.77 133.236L66.776 157.889L70.2995 158.574Z" fill="black"/>
<path d="M121.694 156.734C121.451 147.061 121.451 136.404 121.694 126.688C121.977 136.404 121.977 147.061 121.694 156.734Z" fill="#263238"/>
<path d="M75.929 115.517C75.929 115.517 75.605 117.529 77.3465 117.4C79.1285 117.229 86.1755 116.459 86.1755 116.459L85.406 114.404C85.406 114.404 79.088 113.377 75.929 115.517Z" fill="#42462D"/>
<path opacity="0.4" d="M75.929 115.517C75.929 115.517 75.605 117.529 77.3465 117.4C79.1285 117.229 86.1755 116.459 86.1755 116.459L85.406 114.404C85.406 114.404 79.088 113.377 75.929 115.517Z" fill="#42462D"/>
<path d="M119.507 115.474C119.507 115.474 119.871 117.443 118.089 117.358C116.348 117.229 109.26 116.587 109.26 116.587L110.03 114.533C110.03 114.533 116.307 113.377 119.507 115.474Z" fill="#42462D"/>
<path d="M121.451 192.9L66.0065 192.557L66.29 187.806L121.411 187.079L121.451 192.9Z" fill="black"/>
<path d="M97.475 192.9H87.593V186.48H97.475V192.9Z" fill="#263238"/>
<path opacity="0.6" d="M97.475 192.9H87.593V186.48H97.475V192.9Z" fill="white"/>
<path d="M107.681 187.079V193.499H111.245V187.079H107.681Z" fill="#263238"/>
<path d="M73.4585 187.079V192.9H76.739V187.079H73.4585Z" fill="#263238"/>
<path d="M114.364 194.783C114.391 194.583 114.391 194.383 114.364 194.184C114.242 191.402 111.934 189.262 109.301 189.433C106.628 189.604 104.603 192.001 104.765 194.783H106.101C106.101 192.771 107.681 191.145 109.584 191.145C111.488 191.145 113.027 192.771 113.027 194.783H114.364Z" fill="#263238"/>
<g opacity="0.7">
<path d="M114.364 194.783C114.391 194.583 114.391 194.383 114.364 194.184C114.242 191.402 111.934 189.262 109.301 189.433C106.628 189.604 104.603 192.001 104.765 194.783H106.101C106.101 192.771 107.681 191.145 109.584 191.145C111.488 191.145 113.027 192.771 113.027 194.783H114.364Z" fill="white"/>
</g>
<path fill-rule="evenodd" clip-rule="evenodd" d="M117.239 196.409C118.616 197.222 119.791 198.421 120.52 199.876C122.626 204.028 121.127 209.164 117.239 211.346C113.351 213.572 108.491 212.031 106.385 207.88C104.32 203.771 105.778 198.635 109.666 196.409L110.192 194.911C110.395 194.098 111.124 193.584 111.893 193.627H115.052C115.822 193.627 116.51 194.141 116.753 194.911L117.28 196.409H117.239ZM113.432 209.506C113.432 209.506 113.446 209.506 113.473 209.506C116.429 209.506 118.859 206.981 118.859 203.856C118.859 200.732 116.429 198.164 113.473 198.164C110.516 198.164 108.127 200.732 108.127 203.856C108.127 206.981 110.516 209.506 113.473 209.506H113.432Z" fill="#263238"/>
<path opacity="0.5" fill-rule="evenodd" clip-rule="evenodd" d="M117.239 196.409C118.616 197.222 119.791 198.421 120.52 199.876C122.626 204.028 121.127 209.164 117.239 211.346C113.351 213.572 108.491 212.031 106.385 207.88C104.32 203.771 105.778 198.635 109.666 196.409L110.192 194.911C110.395 194.098 111.124 193.584 111.893 193.627H115.052C115.822 193.627 116.51 194.141 116.753 194.911L117.28 196.409H117.239ZM113.432 209.506C113.432 209.506 113.446 209.506 113.473 209.506C116.429 209.506 118.859 206.981 118.859 203.856C118.859 200.732 116.429 198.164 113.473 198.164C110.516 198.164 108.127 200.732 108.127 203.856C108.127 206.981 110.516 209.506 113.473 209.506H113.432Z" fill="white"/>
<path fill-rule="evenodd" clip-rule="evenodd" d="M110.678 196.409C112.096 197.222 113.23 198.421 113.999 199.876C116.065 204.028 114.607 209.164 110.678 211.346C106.79 213.572 101.93 212.031 99.8645 207.88C97.7585 203.771 99.2165 198.635 103.145 196.409L103.631 194.911C103.874 194.141 104.563 193.627 105.332 193.627H108.491C109.261 193.627 109.949 194.141 110.233 194.911L110.719 196.409H110.678ZM112.217 203.856C112.217 200.732 109.828 198.164 106.871 198.164C103.915 198.164 101.485 200.732 101.485 203.856C101.485 206.981 103.915 209.506 106.871 209.506C109.828 209.506 112.217 206.981 112.217 203.856Z" fill="#263238"/>
<path opacity="0.7" fill-rule="evenodd" clip-rule="evenodd" d="M110.678 196.409C112.096 197.222 113.23 198.421 113.999 199.876C116.065 204.028 114.607 209.164 110.678 211.346C106.79 213.572 101.93 212.031 99.8645 207.88C97.7585 203.771 99.2165 198.635 103.145 196.409L103.631 194.911C103.874 194.141 104.563 193.627 105.332 193.627H108.491C109.261 193.627 109.949 194.141 110.233 194.911L110.719 196.409H110.678ZM112.217 203.856C112.217 200.732 109.828 198.164 106.871 198.164C103.915 198.164 101.485 200.732 101.485 203.856C101.485 206.981 103.915 209.506 106.871 209.506C109.828 209.506 112.217 206.981 112.217 203.856Z" fill="white"/>
<path d="M94.721 125.147L87.3095 176.978L92.0885 192.215L100.432 180.231L98.204 125.147H94.721Z" fill="#263238"/>
<path d="M92.615 119.968L95.0045 125.104L97.961 125.404L101.16 120.311L96.9485 115.389L92.615 119.968Z" fill="#263238"/>
<path d="M110.678 110.724C111.002 109.525 111.893 108.37 113.068 108.156C113.878 107.942 114.647 107.984 115.498 107.984C116.308 107.984 117.199 108.198 117.847 108.798C118.981 109.825 119.021 111.665 118.981 113.249C118.981 114.362 118.94 115.517 118.292 116.416C117.847 117.058 117.118 117.443 116.389 117.657C115.619 117.828 114.85 117.871 114.08 117.871C113.108 117.871 112.015 117.828 111.326 117.101C110.678 116.459 110.597 115.432 110.516 114.49C110.435 113.206 110.314 111.922 110.678 110.724Z" fill="#263238"/>
<g opacity="0.4">
<path d="M116.875 116.416C117.523 115.517 117.563 114.362 117.563 113.249C117.604 111.665 117.563 109.825 116.389 108.798C115.781 108.241 114.971 107.984 114.161 107.984C114.607 107.984 115.052 107.984 115.498 107.984C116.308 107.984 117.199 108.198 117.847 108.798C118.981 109.825 119.021 111.665 118.981 113.249C118.981 114.362 118.94 115.517 118.292 116.416C117.847 117.058 117.118 117.443 116.389 117.657C115.619 117.828 114.85 117.871 114.08 117.871C113.81 117.871 113.554 117.857 113.311 117.828C113.878 117.828 114.404 117.786 114.931 117.657C115.7 117.443 116.429 117.058 116.875 116.416Z" fill="black"/>
</g>
<path opacity="0.4" d="M115.336 111.965C114.094 111.965 112.838 111.965 111.569 111.965" stroke="black" stroke-width="2" stroke-linecap="round" stroke-linejoin="round"/>
<path opacity="0.4" d="M115.336 113.891C114.094 113.891 112.838 113.891 111.569 113.891" stroke="black" stroke-width="2" stroke-linecap="round" stroke-linejoin="round"/>
<path d="M113.108 122.322H115.336V117.443H113.108V122.322Z" fill="#263238"/>
<path d="M122.018 161.056C117.765 155.535 115.214 148.901 114.566 141.796C114.08 136.404 114.161 130.925 114.363 125.532C114.39 124.106 114.444 122.693 114.525 121.295C114.525 120.867 113.918 120.867 113.918 121.295C113.715 125.147 113.634 129.042 113.634 132.894C113.634 139.143 113.918 145.434 115.983 151.341C117.279 155.064 119.223 158.446 121.572 161.527C121.815 161.827 122.261 161.399 122.018 161.056Z" fill="#263238"/>
<path d="M78.116 369.535L78.602 362.944H66.4115L67.181 370.092L76.2125 373.858L78.116 369.535Z" fill="#263238"/>
<path d="M66.695 369.963H69.935C70.664 369.963 71.3525 370.348 71.798 370.99C73.661 373.687 75.0785 372.66 77.1035 370.134C78.3995 369.963 78.764 371.547 78.845 371.932L81.275 381.262C81.4775 382.076 81.0725 382.889 80.3435 383.103C80.2085 383.131 80.0735 383.146 79.9385 383.146C75.9695 383.146 74.1065 383.146 69.206 383.146H54.221C50.09 383.146 49.28 378.78 50.9405 378.395C58.514 376.64 63.9005 374.286 66.2495 371.932C66.6545 371.547 66.209 371.204 66.695 369.963Z" fill="#263238"/>
<path d="M64.427 372.617C65.561 372.788 66.614 373.473 67.181 374.5" stroke="#407BFF" stroke-linecap="round" stroke-linejoin="round"/>
<path d="M62.4425 374.2C63.536 374.372 64.589 375.099 65.1965 376.084" stroke="#407BFF" stroke-linecap="round" stroke-linejoin="round"/>
<path d="M59.9315 375.57C61.025 375.741 62.078 376.426 62.6855 377.453" stroke="#407BFF" stroke-linecap="round" stroke-linejoin="round"/>
</svg>
